<?xml version="1.0" encoding="UTF-8"?>
<svg width="202px" height="69px" viewBox="0 0 202 69" version="1.1" xmlns="http://www.w3.org/2000/svg" xmlns:xlink="http://www.w3.org/1999/xlink">
    <!-- Generator: Sketch 47.1 (45422) - http://www.bohemiancoding.com/sketch -->
    <title>Rectangle 8 Copy</title>
    <desc>Created with Sketch.</desc>
    <defs>
        <path d="M2,3.39271884e-15 L196,7.40475597e-14 L196,7.46069873e-14 C197.104569,7.44040811e-14 198,0.8954305 198,2 L198,53.862069 L198,53.862069 C198,54.9666385 197.104569,55.862069 196,55.862069 L42.1775148,55.862069 L29.8757396,65 L17.5739645,55.862069 L2,55.862069 L2,55.862069 C0.8954305,55.862069 1.4717631e-14,54.9666385 1.0658141e-14,53.862069 L3.98479923e-15,2 L2.22044605e-15,2 C1.5946479e-15,0.8954305 0.8954305,3.31153059e-15 2,3.10862447e-15 Z" id="path-1"></path>
        <filter x="-0.4%" y="-1.3%" width="101.4%" height="104.2%" filterUnits="objectBoundingBox" id="filter-2">
            <feMorphology radius="0.125" operator="dilate" in="SourceAlpha" result="shadowSpreadOuter1"></feMorphology>
            <feOffset dx="0.5" dy="0.5" in="shadowSpreadOuter1" result="shadowOffsetOuter1"></feOffset>
            <feGaussianBlur stdDeviation="0.25" in="shadowOffsetOuter1" result="shadowBlurOuter1"></feGaussianBlur>
            <feComposite in="shadowBlurOuter1" in2="SourceAlpha" operator="out" result="shadowBlurOuter1"></feComposite>
            <feColorMatrix values="0 0 0 0 0   0 0 0 0 0   0 0 0 0 0  0 0 0 0.2 0" type="matrix" in="shadowBlurOuter1"></feColorMatrix>
        </filter>
    </defs>
    <g id="Page-1" stroke="none" stroke-width="1" fill="none" fill-rule="evenodd">
        <g id="Artboard-Copy-88" transform="translate(-37.000000, -267.000000)">
            <g id="Item" transform="translate(35.000000, 268.000000)">
                <g id="Min-Selector" transform="translate(3.000000, 0.000000)">
                    <g id="NumbersMenu">
                        <g id="Rectangle-8-Copy">
                            <use fill="black" fill-opacity="1" filter="url(#filter-2)" xlink:href="#path-1"></use>
                            <use fill="#FFFFFF" fill-rule="evenodd" xlink:href="#path-1"></use>
                            <path stroke="#0077B5" stroke-width="1" d="M29.8757396,64.3771492 L42.0121291,55.362069 L196,55.362069 C196.828427,55.362069 197.5,54.6904961 197.5,53.862069 L197.5,2 C197.5,1.17157288 196.828427,0.5 196,0.5 L2,0.5 C1.17157288,0.5 0.5,1.17157288 0.5,2 L0.5,53.862069 C0.5,54.6904961 1.17157288,55.362069 2,55.362069 L17.5739645,55.362069 L17.7393502,55.362069 L29.8757396,64.3771492 Z"></path>
                        </g>
                    </g>
                </g>
            </g>
        </g>
    </g>
</svg>