<?xml version="1.0" encoding="UTF-8"?>
<svg width="16px" height="16px" viewBox="0 0 16 16" version="1.1" xmlns="http://www.w3.org/2000/svg" xmlns:xlink="http://www.w3.org/1999/xlink">
    <!-- Generator: Sketch 47.1 (45422) - http://www.bohemiancoding.com/sketch -->
    <title>trashIcon</title>
    <desc>Created with Sketch.</desc>
    <defs></defs>
    <g id="Page-1" stroke="none" stroke-width="1" fill="none" fill-rule="evenodd">
        <g id="Artboard-Copy-40" transform="translate(-251.000000, -331.000000)" fill="#0077B5">
            <path d="M258.850494,337.820305 L256.426128,335.395939 L255.618006,336.204061 L258.042372,338.628427 L255.618006,341.052793 L256.426128,341.860915 L258.850494,339.436549 L261.27486,341.860915 L262.082982,341.052793 L259.658616,338.628427 L262.082982,336.204061 L261.27486,335.395939 L258.850494,337.820305 Z M250.997792,331.291368 C250.965609,331.13045 251.07784,331 251.244853,331 L266.634185,331 C266.802816,331 266.911854,331.138321 266.881245,331.291368 L263.934876,346.023214 C263.826983,346.562678 263.289367,347 262.748308,347 L255.130729,347 C254.583299,347 254.050592,346.555369 253.944161,346.023214 L250.997792,331.291368 Z" id="trashIcon"></path>
        </g>
    </g>
</svg>